<?xml version="1.0" standalone="no"?>
<!DOCTYPE svg PUBLIC "-//W3C//DTD SVG 20010904//EN"
 "http://www.w3.org/TR/2001/REC-SVG-20010904/DTD/svg10.dtd">
<svg version="1.0" xmlns="http://www.w3.org/2000/svg"
 width="474.000000pt" height="474.000000pt" viewBox="0 0 474.000000 474.000000"
 preserveAspectRatio="xMidYMid meet">

<g transform="translate(0.000000,474.000000) scale(0.100000,-0.100000)"
fill="#000000" stroke="none">
<path d="M201 3182 c-17 -6 -13 -40 7 -60 18 -18 95 -19 2145 -18 1169 1 2127
3 2130 6 2 3 7 14 11 26 16 52 134 49 -2155 49 -1170 0 -2133 -1 -2138 -3z"/>
<path d="M410 3071 c-39 -8 -104 -41 -136 -69 -53 -45 -89 -163 -74 -242 24
-125 73 -166 296 -246 57 -21 86 -54 86 -98 0 -46 -12 -61 -68 -82 -39 -15
-52 -15 -99 -5 -47 11 -59 18 -88 59 -19 26 -37 57 -41 68 -4 12 -16 30 -27
40 -34 31 -49 3 -53 -106 -2 -52 -7 -107 -11 -122 -9 -34 26 -72 56 -63 11 4
69 1 128 -5 144 -16 266 -1 327 41 48 33 104 94 104 114 0 20 19 29 34 16 9
-8 61 -11 152 -9 120 3 139 5 142 20 2 9 -10 28 -25 42 l-28 26 -3 245 c-3
284 -4 283 83 192 27 -29 57 -56 66 -59 13 -5 16 -32 17 -186 1 -168 0 -182
-19 -207 -20 -24 -20 -27 -5 -44 14 -15 33 -18 130 -17 63 1 117 4 121 7 3 4
-1 24 -10 45 -18 42 -30 210 -15 219 10 6 39 -33 74 -103 29 -60 32 -88 11
-116 -13 -17 -13 -22 0 -36 13 -15 38 -17 185 -16 93 1 172 5 176 9 4 3 -1 18
-10 31 -21 33 -20 79 2 141 20 56 34 63 85 42 68 -29 117 -134 74 -159 -20
-11 -22 -35 -4 -53 18 -17 378 -16 384 2 2 6 -4 24 -14 39 -16 24 -18 52 -19
209 -1 228 1 238 50 165 35 -53 48 -72 111 -155 33 -43 39 -53 73 -113 26 -48
28 -75 7 -92 -20 -17 -19 -46 3 -55 9 -4 46 -8 82 -9 55 -1 65 2 68 17 2 10
-3 26 -11 35 -15 17 -30 122 -17 122 4 0 28 -26 53 -58 32 -39 65 -67 102 -86
l56 -28 423 -3 424 -4 10 27 c6 15 13 44 17 64 3 21 10 40 16 44 7 4 9 -31 7
-110 -4 -106 -6 -117 -28 -136 -20 -17 -22 -23 -12 -45 13 -28 3 -27 192 -25
69 1 129 5 134 10 6 6 -1 30 -17 62 -25 49 -27 63 -26 176 0 109 2 123 16 120
20 -4 62 -73 103 -169 35 -84 38 -121 10 -140 -19 -13 -20 -15 -4 -37 16 -23
18 -23 187 -20 186 3 198 8 152 54 -17 17 -42 68 -66 138 -41 116 -76 189
-115 243 -13 17 -24 37 -24 43 0 7 18 28 40 47 22 19 51 58 65 86 23 48 24 57
15 112 -5 33 -10 61 -10 62 0 2 -19 15 -42 30 l-41 28 -284 3 c-210 3 -288 0
-299 -9 -9 -7 -18 -8 -26 -2 -18 13 -404 16 -428 3 -19 -10 -19 -12 5 -55 23
-44 23 -50 22 -284 -2 -253 -7 -279 -45 -255 -14 9 -17 31 -20 134 -3 120 -2
124 23 150 22 23 24 28 11 45 -12 17 -29 20 -135 22 -138 4 -150 -3 -109 -59
21 -30 23 -42 21 -133 -3 -114 -13 -130 -72 -121 -41 6 -60 23 -85 73 -10 21
-23 47 -28 58 -16 29 -12 194 6 235 19 47 74 98 111 105 45 8 124 -39 153 -92
16 -29 30 -43 44 -43 19 0 20 4 13 63 -4 34 -7 76 -6 92 1 17 -5 40 -13 50
-16 22 -63 28 -236 28 -108 0 -145 -14 -213 -84 -21 -22 -40 -39 -43 -39 -10
0 -3 35 11 50 19 21 9 57 -18 64 -29 7 -137 -5 -137 -16 0 -5 9 -26 20 -48 23
-45 28 -134 8 -128 -7 3 -17 13 -23 24 -5 11 -20 35 -32 54 -13 22 -19 45 -16
61 9 49 -11 56 -165 55 -77 -1 -144 -5 -148 -9 -5 -4 0 -24 11 -43 17 -31 19
-59 19 -271 1 -254 -8 -295 -37 -181 -9 35 -24 88 -33 118 -9 30 -24 89 -34
130 -11 41 -26 95 -35 119 -8 24 -13 58 -10 75 3 17 1 37 -3 44 -11 17 -116
26 -189 17 l-53 -6 0 -37 c0 -32 -24 -117 -94 -337 -9 -27 -21 -69 -27 -93 -8
-36 -13 -41 -25 -32 -8 7 -14 18 -14 24 0 10 -39 87 -82 163 -17 30 -17 31 12
61 38 40 70 104 70 140 0 38 -47 98 -87 112 -19 7 -124 11 -265 11 -542 1
-691 5 -782 22 -93 18 -137 19 -196 8z m205 -61 c39 -6 74 -15 79 -20 7 -7 -1
-70 -9 -70 -2 0 -21 11 -41 25 -55 37 -101 47 -158 32 -58 -14 -86 -46 -93
-105 -4 -34 0 -45 27 -75 18 -21 51 -43 78 -52 197 -69 240 -96 273 -170 28
-63 11 -184 -33 -240 -26 -34 -82 -68 -135 -83 -56 -17 -184 -17 -263 -2 -98
19 -99 20 -95 92 3 87 4 87 25 47 21 -40 81 -92 126 -110 49 -18 146 -3 183
30 17 15 28 31 24 35 -4 4 -1 11 6 15 17 11 18 80 2 119 -9 21 -32 39 -85 66
-40 20 -79 36 -86 36 -7 0 -46 16 -86 35 -101 49 -131 106 -113 216 9 58 45
121 88 155 21 17 160 43 196 37 11 -1 52 -8 90 -13z m1914 -52 c9 -17 42 -70
74 -119 49 -75 63 -89 85 -89 l27 0 0 -165 c0 -125 -3 -165 -12 -165 -8 0 -13
15 -13 40 0 46 -23 98 -72 158 -34 42 -63 82 -139 190 -93 134 -128 158 -130
94 -1 -20 -4 -16 -11 16 -5 24 -7 50 -4 57 6 16 49 21 125 17 47 -4 55 -7 70
-34z m501 38 c0 -2 -20 -16 -44 -30 -62 -36 -87 -105 -88 -243 -1 -95 1 -104
33 -169 24 -48 47 -78 79 -102 l45 -35 -55 8 c-81 11 -165 76 -195 150 -14 34
-15 294 -1 303 7 4 22 21 34 39 26 37 112 81 160 82 17 1 32 -1 32 -3z m188
-24 c14 -19 16 -52 2 -52 -5 0 -13 6 -17 13 -11 18 -59 47 -78 47 -8 0 -15 5
-15 11 0 17 92 1 108 -19z m650 -176 c4 -143 3 -155 -15 -164 -10 -6 -36 -35
-57 -66 -41 -60 -99 -96 -154 -96 -51 0 -62 27 -62 153 0 128 5 134 85 94 28
-15 57 -27 63 -27 18 0 15 125 -3 160 -9 17 -18 30 -21 30 -4 0 -20 -11 -36
-26 -20 -16 -40 -24 -57 -22 -22 3 -26 9 -29 38 -3 49 10 65 55 64 54 -2 117
-36 132 -73 17 -40 48 -68 62 -54 9 9 5 51 -17 163 l-6 35 28 -28 29 -27 3
-154z m449 194 c62 0 76 -3 102 -26 26 -21 31 -33 31 -67 0 -56 -19 -88 -85
-149 -63 -58 -63 -63 -9 -139 43 -62 100 -182 118 -251 8 -31 21 -70 30 -86 9
-17 16 -33 16 -36 0 -2 -48 -3 -106 -2 l-106 2 -2 44 c-2 58 -114 288 -157
325 -28 23 -32 24 -54 9 -13 -8 -25 -25 -27 -37 -7 -39 -3 -241 6 -289 l8 -48
-83 0 -84 0 0 312 c1 297 -3 382 -19 420 -7 15 0 17 51 20 32 2 112 2 178 1
66 -1 152 -2 192 -3z m-3487 -15 c-32 -18 -40 -18 -40 0 0 10 10 15 33 15 l32
-1 -25 -14z m220 5 c-12 -8 -15 -46 -17 -227 -1 -120 2 -242 8 -272 11 -65 8
-68 -65 -70 l-53 -1 1 243 c0 133 -3 263 -8 290 l-7 47 78 0 c53 0 73 -3 63
-10z m125 -1 c4 -6 5 -13 1 -16 -8 -8 -56 6 -56 17 0 13 47 13 55 -1z m255 3
c0 -5 -7 -15 -15 -22 -22 -18 -22 -212 0 -230 14 -12 14 -15 -1 -31 -14 -15
-16 -38 -13 -146 l4 -128 -56 -3 -56 -3 2 283 c1 156 3 283 4 283 35 6 131 4
131 -3z m238 -11 c17 -9 22 -21 22 -54 0 -38 -6 -48 -50 -92 -52 -51 -60 -73
-35 -99 8 -8 15 -17 15 -20 0 -3 15 -31 33 -63 19 -32 44 -87 57 -123 13 -36
27 -69 32 -74 18 -21 5 -26 -66 -26 -82 0 -80 -1 -91 74 -4 25 -20 66 -36 91
-16 25 -29 49 -29 53 0 4 -13 24 -30 44 l-30 36 43 25 c60 36 98 118 78 170
-6 14 -22 37 -38 52 l-28 27 66 -5 c36 -2 75 -10 87 -16z m433 -26 c7 -44 63
-244 114 -405 18 -58 30 -109 26 -113 -5 -4 -37 -7 -72 -5 l-64 3 -3 40 c-4
69 -11 84 -59 130 -47 43 -115 71 -158 63 -24 -4 -29 13 -11 37 11 15 17 17
28 8 28 -24 132 -74 144 -69 11 4 6 69 -8 92 -3 5 -9 25 -12 44 -12 72 -35
140 -55 166 -12 15 -21 30 -21 35 0 12 30 17 90 16 l55 -2 6 -40z m615 21 c5
-19 1 -79 -6 -96 -4 -9 -18 55 -19 88 -1 37 16 43 25 8z m844 19 c6 -4 5 -14
-5 -28 -18 -26 -21 -137 -3 -155 9 -9 9 -15 0 -24 -8 -8 -12 -54 -12 -140 0
-141 13 -192 52 -208 16 -6 -4 -9 -70 -7 l-94 2 0 270 c1 149 1 275 1 281 1
12 114 19 131 9z m209 -14 c6 -10 8 -21 4 -24 -6 -6 -83 29 -83 38 0 3 16 5
35 5 23 0 37 -6 44 -19z m-3175 -46 c18 -9 52 -35 75 -60 52 -54 87 -56 113
-5 17 33 62 70 86 70 9 0 12 -53 12 -231 0 -230 -5 -269 -35 -269 -12 0 -15
15 -15 65 0 75 -19 120 -71 173 -41 42 -86 65 -189 98 -86 27 -125 54 -134 95
-13 57 87 97 158 64z m932 -10 c23 -35 10 -79 -32 -112 -19 -14 -37 -24 -39
-21 -8 8 -15 111 -9 130 5 15 21 24 51 27 7 0 20 -10 29 -24z m453 -128 c16
-20 26 -77 13 -77 -31 0 -42 14 -42 51 0 40 9 49 29 26z m1719 -20 c-3 -14 -5
-14 -23 -1 -17 13 -18 16 -5 24 18 11 33 -2 28 -23z m-1351 -49 c-2 -13 -4 -3
-4 22 0 25 2 35 4 23 2 -13 2 -33 0 -45z m373 58 c0 -3 -4 -8 -10 -11 -5 -3
-10 -1 -10 4 0 6 5 11 10 11 6 0 10 -2 10 -4z m548 -35 c10 -6 14 -48 15 -164
l2 -157 -77 0 c-43 0 -78 4 -78 8 0 5 10 19 23 32 21 23 22 33 21 152 -1 122
0 127 20 131 37 7 61 7 74 -2z m-921 -198 c-2 -16 -4 -5 -4 22 0 28 2 40 4 28
2 -13 2 -35 0 -50z m-527 -78 c0 -37 -3 -45 -19 -45 -18 0 -18 2 -2 45 9 25
17 45 18 45 2 0 3 -20 3 -45z m540 -26 c0 -10 -4 -19 -10 -19 -5 0 -10 12 -10
26 0 14 4 23 10 19 6 -3 10 -15 10 -26z m1426 5 c-3 -9 -6 -18 -6 -20 0 -9
-49 -3 -55 6 -3 6 3 10 14 10 11 0 23 5 26 10 10 16 28 11 21 -6z"/>
<path d="M4114 2961 c-18 -11 -35 -24 -39 -30 -3 -6 -7 -67 -8 -135 -2 -107 0
-127 16 -144 13 -14 25 -18 40 -13 40 12 124 72 136 97 6 13 16 35 22 48 16
34 6 108 -20 144 -14 20 -33 32 -57 36 -19 4 -41 9 -47 12 -7 2 -26 -5 -43
-15z m119 -73 c35 -47 1 -122 -80 -175 -36 -24 -43 -9 -39 89 2 76 6 93 22
105 28 21 74 12 97 -19z"/>
<path d="M943 2262 c-27 -4 -42 -44 -50 -133 -5 -58 -3 -67 13 -73 13 -5 24 1
39 20 40 53 66 75 83 72 15 -3 17 -24 20 -213 3 -245 1 -268 -33 -283 -30 -14
-33 -47 -6 -62 25 -13 298 -13 306 0 3 5 -10 26 -30 47 l-35 36 2 235 c2 156
7 237 14 239 16 5 78 -39 89 -64 5 -12 19 -26 32 -32 32 -15 35 -38 31 -224
-3 -145 -5 -167 -22 -186 -18 -20 -18 -22 -1 -41 16 -18 31 -20 136 -20 75 0
120 4 125 11 3 6 -4 25 -16 41 -19 26 -23 46 -26 127 -1 53 0 121 3 152 l5 57
46 5 c74 8 72 12 72 -153 0 -135 -2 -150 -21 -174 -20 -26 -21 -28 -3 -47 15
-17 30 -19 136 -18 65 0 120 5 123 9 3 5 -4 28 -16 51 -21 39 -22 54 -22 274
0 201 3 235 18 258 17 27 13 66 -8 68 -38 2 -243 -3 -247 -7 -2 -3 6 -24 19
-47 15 -27 22 -54 19 -77 l-3 -35 -55 0 -55 0 -3 41 c-2 28 2 47 13 58 11 11
15 25 11 41 -6 23 -9 24 -143 30 -278 12 -539 20 -560 17z m227 -48 l36 -6 0
-201 c0 -111 2 -240 5 -287 l4 -85 -62 -3 -61 -3 3 266 c3 246 2 267 -16 289
-10 13 -15 26 -12 30 8 8 57 8 103 0z m174 -16 c5 -9 7 -20 3 -24 -8 -9 -87
26 -87 38 0 16 72 4 84 -14z m-340 2 c-12 -5 -25 -13 -29 -19 -9 -16 -25 -3
-18 14 3 9 18 15 37 14 27 0 29 -1 10 -9z m569 -10 c4 0 5 -29 1 -65 -5 -46
-3 -69 6 -80 10 -12 10 -18 1 -29 -9 -10 -11 -67 -9 -200 l4 -186 -56 0 -55 0
1 252 c1 139 -3 264 -8 276 -12 35 -2 42 55 37 29 -2 56 -4 60 -5z m313 2 c9
-5 12 -86 10 -287 -1 -314 8 -280 -76 -277 l-35 2 -2 182 c-1 101 -1 199 -1
218 1 19 1 65 0 103 l0 67 46 0 c26 0 52 -4 58 -8z m-466 -48 c0 -8 -4 -12
-10 -9 -5 3 -10 10 -10 16 0 5 5 9 10 9 6 0 10 -7 10 -16z"/>
<path d="M2985 2250 c-69 -12 -118 -40 -167 -93 -43 -46 -48 -49 -48 -27 0 13
10 34 21 47 20 20 20 24 7 44 -13 20 -22 22 -89 20 -40 -1 -76 -5 -78 -7 -3
-3 5 -24 18 -47 17 -32 22 -54 19 -92 l-3 -50 -38 50 c-32 41 -38 56 -34 82
10 58 -1 62 -168 64 -103 0 -151 -3 -153 -11 -3 -7 -8 -8 -16 -1 -14 12 -242
18 -253 8 -4 -4 1 -29 10 -55 25 -70 25 -500 0 -543 -27 -45 -10 -53 122 -56
130 -4 139 1 109 59 -15 28 -18 65 -20 263 -2 222 -2 231 19 262 26 39 32 40
51 10 13 -19 15 -65 13 -271 -1 -189 -5 -250 -14 -254 -16 -5 -17 -44 -1 -60
14 -14 134 -16 143 -2 3 5 -1 26 -10 46 -12 28 -15 78 -15 225 0 104 3 189 8
189 4 -1 23 -24 42 -52 19 -28 47 -64 61 -82 64 -78 130 -179 136 -206 3 -20
0 -39 -11 -56 -16 -23 -16 -27 -1 -50 15 -23 21 -25 83 -22 61 3 67 5 70 25 2
13 -4 33 -12 45 -16 23 -23 118 -8 118 4 0 17 -19 30 -43 29 -55 103 -109 179
-130 50 -14 100 -17 281 -16 153 1 235 -2 271 -12 49 -12 105 -6 219 27 7 2
20 17 30 34 9 16 23 30 29 30 45 0 67 192 28 239 -55 66 -75 81 -140 105 -102
38 -139 59 -143 79 -9 45 78 83 122 53 13 -8 37 -28 54 -45 31 -32 56 -39 67
-21 4 7 13 6 25 -3 15 -10 88 -12 347 -10 180 2 333 3 338 3 86 -6 80 -8 78
29 -1 18 -7 38 -15 42 -7 5 -183 8 -390 7 -404 -3 -388 -5 -388 46 0 12 -7 32
-16 45 -13 17 -22 21 -42 16 -14 -3 -55 -1 -91 6 -98 17 -165 1 -219 -53 -46
-45 -64 -89 -66 -156 l-1 -44 -125 -5 c-69 -3 -129 -9 -134 -13 -4 -5 3 -21
18 -37 24 -26 26 -34 26 -121 0 -111 -14 -142 -65 -142 -52 0 -111 61 -120
124 -2 12 -8 44 -14 71 -11 50 -10 99 2 112 4 3 7 16 7 28 0 12 10 41 22 66
12 24 21 46 21 49 -1 3 6 6 15 7 9 1 36 5 59 8 65 11 89 0 140 -65 65 -84 78
-81 69 18 -4 42 -11 91 -16 107 -10 30 -11 31 -113 43 -110 13 -113 13 -172 2z
m131 -42 c2 -3 -19 -8 -48 -12 -43 -6 -59 -14 -89 -46 -82 -86 -95 -261 -30
-402 22 -48 71 -98 97 -98 8 0 14 -5 14 -11 0 -17 -85 -3 -137 22 -27 13 -56
39 -76 67 l-32 47 -2 154 c-1 88 2 160 7 166 6 7 7 15 3 18 -3 4 1 7 9 7 9 0
32 18 51 41 20 22 41 38 46 35 12 -8 101 13 101 24 0 7 77 -3 86 -12z m512 6
c32 -9 27 -24 -9 -24 -62 0 -98 -35 -99 -96 0 -53 25 -76 121 -110 81 -29 152
-76 168 -112 21 -44 6 -139 -29 -188 -21 -30 -97 -64 -141 -64 -46 0 -59 14
-16 17 21 2 41 13 59 32 23 25 26 36 21 73 -7 55 -33 92 -75 107 -32 12 -54
21 -130 54 -43 19 -85 71 -94 116 -5 24 0 45 21 86 31 63 43 74 99 96 46 19
70 22 104 13z m-1443 -299 c0 -278 0 -285 -20 -285 -11 0 -36 -3 -56 -6 l-36
-6 2 288 c1 159 3 290 4 292 0 1 25 2 54 2 l52 0 0 -285z m365 241 c7 -22 22
-53 34 -68 11 -14 37 -49 56 -77 19 -28 45 -54 57 -57 18 -5 23 -15 27 -57 3
-29 5 -81 3 -117 -1 -36 2 -85 7 -108 7 -40 6 -44 -10 -40 -15 2 -20 15 -24
55 -3 31 -14 64 -28 82 -12 17 -22 33 -22 37 0 3 -17 28 -37 55 -21 26 -78
103 -128 169 -76 103 -92 120 -111 116 -16 -4 -23 -1 -27 16 -3 12 -4 24 -2
28 2 3 46 6 98 6 l95 1 12 -41z m180 19 c0 -28 -15 -34 -24 -9 -10 25 -7 34 9
34 9 0 15 -9 15 -25z m498 13 c12 -12 17 -48 7 -48 -7 0 -85 52 -85 56 0 10
67 3 78 -8z m526 -8 c5 -5 6 -16 2 -25 -6 -16 -8 -16 -29 -1 -12 9 -30 19 -39
23 -10 3 -18 9 -18 13 0 10 72 1 84 -10z m-1384 -150 c0 -22 -4 -40 -10 -40
-5 0 -10 18 -10 40 0 22 5 40 10 40 6 0 10 -18 10 -40z m353 -15 c-7 -21 -12
-19 -10 4 0 11 5 18 9 15 4 -3 5 -11 1 -19z m569 -230 l0 -160 -68 4 c-72 3
-86 7 -68 19 27 17 33 53 30 176 -1 69 -1 128 0 129 2 1 26 0 55 -3 l51 -5 0
-160z m108 145 c0 -15 119 -90 143 -90 33 0 117 -52 123 -76 14 -54 -61 -102
-129 -83 -55 15 -75 30 -112 85 -22 35 -42 54 -55 54 -18 0 -19 -5 -13 -80 4
-54 2 -80 -5 -80 -6 0 -13 14 -17 30 -9 40 4 221 17 238 12 15 48 16 48 2z
m-1030 -74 c0 -19 -4 -38 -10 -41 -6 -4 -10 10 -10 34 0 23 5 41 10 41 6 0 10
-15 10 -34z m4 -189 c6 -34 5 -38 -11 -35 -10 2 -18 9 -17 16 1 6 2 26 3 44 1
41 16 26 25 -25z m1079 8 c22 -19 55 -38 74 -41 18 -3 31 -10 28 -14 -3 -5
-13 -6 -23 -4 -9 2 -43 8 -74 14 -57 11 -58 12 -58 46 0 19 3 34 6 34 3 0 24
-16 47 -35z"/>
<path d="M190 2102 c0 -62 4 -63 356 -60 l319 3 3 26 c7 58 2 59 -354 59
l-324 0 0 -28z"/>
</g>
</svg>
